<svg fill="none" height="44" viewBox="0 0 44 44" width="44" xmlns="http://www.w3.org/2000/svg" xmlns:xlink="http://www.w3.org/1999/xlink"><linearGradient id="a" gradientUnits="userSpaceOnUse" x1="22" x2="22" y1="4.5" y2="39.5"><stop offset="0" stop-color="#f8733e"/><stop offset="1" stop-color="#fb662b"/></linearGradient><linearGradient id="b" gradientUnits="userSpaceOnUse" x1="30.75" x2="30.75" y1="4.5" y2="15"><stop offset="0" stop-color="#ff804e"/><stop offset="1" stop-color="#fb662b"/></linearGradient><linearGradient id="c"><stop offset="0" stop-color="#ff7b46"/><stop offset="1" stop-color="#fb662b"/></linearGradient><linearGradient id="d" gradientUnits="userSpaceOnUse" x1="22" x2="22" xlink:href="#c" y1="23.75" y2="24.75"/><linearGradient id="e" gradientUnits="userSpaceOnUse" x1="22" x2="22" xlink:href="#c" y1="30.75" y2="31.75"/><linearGradient id="f" gradientUnits="userSpaceOnUse" x1="16.75" x2="16.75" xlink:href="#c" y1="16.75" y2="17.75"/><g stroke-linecap="round" stroke-linejoin="round" stroke-width="2.5"><path d="m25.5 4.5h-14c-.9283 0-1.8185.36875-2.47487 1.02513-.65638.65637-1.02513 1.54661-1.02513 2.47487v28c0 .9283.36875 1.8185 1.02513 2.4749.65637.6564 1.54657 1.0251 2.47487 1.0251h21c.9283 0 1.8185-.3687 2.4749-1.0251s1.0251-1.5466 1.0251-2.4749v-21z" stroke="url(#a)"/><path d="m25.5 4.5v10.5h10.5" stroke="url(#b)"/><path d="m29 23.75h-14" stroke="url(#d)"/><path d="m29 30.75h-14" stroke="url(#e)"/><path d="m18.5 16.75h-1.75-1.75" stroke="url(#f)"/></g></svg>