<svg width="44" height="44" fill="none" xmlns="http://www.w3.org/2000/svg"><path d="M35.375 21.73a12.92 12.92 0 0 1-1.388 5.857 13.104 13.104 0 0 1-11.716 7.246 12.92 12.92 0 0 1-5.858-1.387l-8.788 2.929 2.93-8.788a12.919 12.919 0 0 1-1.388-5.858 13.104 13.104 0 0 1 7.246-11.716 12.919 12.919 0 0 1 5.858-1.388h.77a13.074 13.074 0 0 1 12.334 12.333v.771z" stroke="#000" stroke-width="2.5" stroke-linecap="round" stroke-linejoin="round"/><path d="M35.375 21.73a12.92 12.92 0 0 1-1.388 5.857 13.104 13.104 0 0 1-11.716 7.246 12.92 12.92 0 0 1-5.858-1.387l-8.788 2.929 2.93-8.788a12.919 12.919 0 0 1-1.388-5.858 13.104 13.104 0 0 1 7.246-11.716 12.919 12.919 0 0 1 5.858-1.388h.77a13.074 13.074 0 0 1 12.334 12.333v.771z" stroke="url(#paint0_linear)" stroke-width="2.5" stroke-linecap="round" stroke-linejoin="round"/><defs><linearGradient id="paint0_linear" x1="21.5" y1="8.625" x2="21.5" y2="36.375" gradientUnits="userSpaceOnUse"><stop stop-color="#F8733E"/><stop offset="1" stop-color="#FB662B"/></linearGradient></defs></svg>