<svg width="44" height="44" fill="none" xmlns="http://www.w3.org/2000/svg"><path d="M22.007 43.996c12.144 0 21.99-9.845 21.99-21.989S34.15.018 22.006.018C9.863.018.018 9.863.018 22.008c0 12.143 9.845 21.988 21.99 21.988z" fill="#FF4500"/><path d="M36.67 22.005a3.217 3.217 0 0 0-3.329-3.093 3.222 3.222 0 0 0-2.104.89 15.633 15.633 0 0 0-8.467-2.705l1.427-6.86 4.706.99a2.198 2.198 0 1 0 4.373-.47 2.198 2.198 0 0 0-4.083-.875l-5.39-1.077a.681.681 0 0 0-.814.52v.01l-1.623 7.63c-3.061.05-6.04.99-8.576 2.707a3.207 3.207 0 0 0-4.537.142A3.206 3.206 0 0 0 9.26 24.93a7.145 7.145 0 0 0 0 .967c0 4.925 5.739 8.931 12.817 8.931s12.818-4 12.818-8.93a7.132 7.132 0 0 0 0-.968 3.21 3.21 0 0 0 1.776-2.925zm-21.99 2.203c0-1.213.99-2.203 2.204-2.203 1.213 0 2.202.99 2.202 2.203a2.206 2.206 0 0 1-2.202 2.203 2.21 2.21 0 0 1-2.203-2.203zm12.775 6.045a8.442 8.442 0 0 1-5.433 1.695 8.443 8.443 0 0 1-5.433-1.695.593.593 0 1 1 .836-.836A7.183 7.183 0 0 0 22 30.8a7.237 7.237 0 0 0 4.596-1.34.619.619 0 0 1 .87.012c.235.24.23.634-.011.869v-.088zm-.394-3.766a2.207 2.207 0 0 1-2.203-2.202c0-1.214.99-2.203 2.203-2.203 1.213 0 2.203.99 2.203 2.203a2.2 2.2 0 0 1-2.11 2.284h-.11l.017-.082z" fill="#fff"/></svg>