<svg width="44" height="44" fill="none" xmlns="http://www.w3.org/2000/svg"><path d="M35.603 5.676h2.906a2.514 2.514 0 0 1 2.536 2.177v7.618a2.514 2.514 0 0 1-2.536 2.176h-2.906m-7.617 2.177v4.352a3.265 3.265 0 0 0 3.265 3.265l4.352-9.794V5.677H23.328a2.176 2.176 0 0 0-2.176 1.85L19.65 17.32a2.177 2.177 0 0 0 2.177 2.502h6.159z" stroke="#000" stroke-width="2" stroke-linecap="round" stroke-linejoin="round"/><path d="M35.603 5.676h2.906a2.514 2.514 0 0 1 2.536 2.177v7.618a2.514 2.514 0 0 1-2.536 2.176h-2.906m-7.617 2.177v4.352a3.265 3.265 0 0 0 3.265 3.265l4.352-9.794V5.677H23.328a2.176 2.176 0 0 0-2.176 1.85L19.65 17.32a2.177 2.177 0 0 0 2.177 2.502h6.159z" stroke="url(#paint0_linear)" stroke-width="2" stroke-linecap="round" stroke-linejoin="round"/><path d="M8.398 38.324H5.133a2.177 2.177 0 0 1-2.176-2.177V28.53a2.177 2.177 0 0 1 2.176-2.176h3.265m7.617-2.177v-4.352a3.265 3.265 0 0 0-3.264-3.265l-4.353 9.794v11.97h12.275a2.176 2.176 0 0 0 2.177-1.85l1.501-9.794a2.175 2.175 0 0 0-2.176-2.502h-6.16z" stroke="#000" stroke-width="2" stroke-linecap="round" stroke-linejoin="round"/><path d="M8.398 38.324H5.133a2.177 2.177 0 0 1-2.176-2.177V28.53a2.177 2.177 0 0 1 2.176-2.176h3.265m7.617-2.177v-4.352a3.265 3.265 0 0 0-3.264-3.265l-4.353 9.794v11.97h12.275a2.176 2.176 0 0 0 2.177-1.85l1.501-9.794a2.175 2.175 0 0 0-2.176-2.502h-6.16z" stroke="url(#paint1_linear)" stroke-width="2" stroke-linecap="round" stroke-linejoin="round"/><defs><linearGradient id="paint0_linear" x1="30.335" y1="5.676" x2="30.335" y2="27.441" gradientUnits="userSpaceOnUse"><stop stop-color="#F8733E"/><stop offset="1" stop-color="#FB662B"/></linearGradient><linearGradient id="paint1_linear" x1="13.666" y1="16.559" x2="13.666" y2="38.324" gradientUnits="userSpaceOnUse"><stop stop-color="#F8733E"/><stop offset="1" stop-color="#FB662B"/></linearGradient></defs></svg>