<svg width="100" height="100" fill="none" xmlns="http://www.w3.org/2000/svg"><path fill-rule="evenodd" clip-rule="evenodd" d="M100 49.78a50.001 50.001 0 1 1-100.002.44A50.001 50.001 0 0 1 100 49.78zm-3.751.018a46.243 46.243 0 0 1-38.046 45.739l-.009-.021C56.27 81.983 68.114 68.73 74.76 61.958c.628-.636 1.395-1.372 2.234-2.175 1.161-1.112 2.458-2.354 3.706-3.641 8.724-8.117 10.516-17.83-7.245-22.666-3.33-.964-6.781-2.327-10.276-3.708l-.079-.031-.004-.018.005.003-.013-.035a3.288 3.288 0 0 0-.323-.787c-2.14-4.501-7.849-5.045-12.592-3.569l.046.004-.046.01c-4.123-.97-8.196-1.315-12.105-.362-16.997 4.682-19.836 12.948-20.53 22.909l-.123 1.487c-.847 10.231-1.493 18.044-5.457 26.928A46.242 46.242 0 1 1 96.248 49.8z" fill="#58595B"/><path fill-rule="evenodd" clip-rule="evenodd" d="M100 49.78a50.001 50.001 0 1 1-100.002.44A50.001 50.001 0 0 1 100 49.78zm-3.751.018a46.243 46.243 0 0 1-38.046 45.739l-.009-.021C56.27 81.983 68.114 68.73 74.76 61.958c.628-.636 1.395-1.372 2.234-2.175 1.161-1.112 2.458-2.354 3.706-3.641 8.724-8.117 10.516-17.83-7.245-22.666-3.33-.964-6.781-2.327-10.276-3.708l-.079-.031-.004-.018.005.003-.013-.035a3.288 3.288 0 0 0-.323-.787c-2.14-4.501-7.849-5.045-12.592-3.569l.046.004-.046.01c-4.123-.97-8.196-1.315-12.105-.362-16.997 4.682-19.836 12.948-20.53 22.909l-.123 1.487c-.847 10.231-1.493 18.044-5.457 26.928A46.242 46.242 0 1 1 96.248 49.8z" fill="#fff"/></svg>