<svg width="99" height="100" fill="none" xmlns="http://www.w3.org/2000/svg"><g clip-path="url(#clip0)"><path d="M86.042 59.753a5.303 5.303 0 0 1-5.392.36c-1.991-1.12-3.065-3.746-3.065-7.326v-10.97c0-5.265-2.094-9.011-5.599-10.029-5.922-1.725-10.344 5.498-12.051 8.215L49.46 56.882v-20.6c-.117-4.751-1.668-7.596-4.604-8.446-1.94-.567-4.849-.335-7.68 3.965L13.757 69.23a41.056 41.056 0 0 1-4.706-19.235C9.052 27.437 27.155 9.09 49.46 9.09c22.306 0 40.474 18.347 40.474 40.904v.231c.22 4.365-1.203 7.841-3.88 9.528h-.013zm12.931-9.747v-.218C98.793 22.3 76.654 0 49.461 0 22.267 0 0 22.428 0 49.994 0 77.559 22.19 100 49.46 100a49.006 49.006 0 0 0 33.621-13.338 4.572 4.572 0 0 0 .233-6.438 4.436 4.436 0 0 0-3.08-1.45 4.453 4.453 0 0 0-3.204 1.154 40.022 40.022 0 0 1-13.579 8.431 40.152 40.152 0 0 1-31.324-1.456 39.977 39.977 0 0 1-12.73-9.653l21.077-33.733v15.566c0 7.48 2.91 9.901 5.353 10.61 2.444.707 6.181.218 10.1-6.116l11.637-18.76c.362-.604.711-1.12 1.022-1.57v9.54c0 6.992 2.819 12.58 7.758 15.334a14.275 14.275 0 0 0 14.496-.579c5.43-3.515 8.392-9.875 8.081-17.536h.052z" fill="#fff"/></g><defs><clipPath id="clip0"><path fill="#fff" d="M0 0H98.947V100H0z"/></clipPath></defs></svg>