<svg fill="none" height="65" width="64" xmlns="http://www.w3.org/2000/svg" xmlns:xlink="http://www.w3.org/1999/xlink"><filter id="b" color-interpolation-filters="sRGB" filterUnits="userSpaceOnUse" height="72" width="72" x="-4" y="-3"><feFlood flood-opacity="0" result="BackgroundImageFix"/><feColorMatrix in="SourceAlpha" values="0 0 0 0 0 0 0 0 0 0 0 0 0 0 0 0 0 0 127 0"/><feOffset/><feGaussianBlur stdDeviation="2"/><feColorMatrix values="0 0 0 0 0.137255 0 0 0 0 0.14902 0 0 0 0 0.207843 0 0 0 0.4 0"/><feBlend in2="BackgroundImageFix" result="effect1_dropShadow"/><feBlend in="SourceGraphic" in2="effect1_dropShadow" result="shape"/></filter><linearGradient id="c" gradientUnits="userSpaceOnUse" x1="32" x2="32" y1="30.333" y2="59.667"><stop offset="0" stop-color="#171a24"/><stop offset="1" stop-color="#545c7e"/></linearGradient><linearGradient id="a"><stop offset="0" stop-color="#545c7e"/><stop offset="1" stop-color="#171a24"/></linearGradient><linearGradient id="d" gradientUnits="userSpaceOnUse" x1="32" x2="32" xlink:href="#a" y1="30.333" y2="59.667"/><linearGradient id="e" gradientUnits="userSpaceOnUse" x1="32" x2="32" xlink:href="#a" y1="6.333" y2="30.333"/><g filter="url(#b)" stroke-linecap="round" stroke-linejoin="round"><path d="M50.667 30.333H13.333A5.333 5.333 0 0 0 8 35.667v18.666a5.333 5.333 0 0 0 5.333 5.334h37.334A5.333 5.333 0 0 0 56 54.333V35.667a5.333 5.333 0 0 0-5.333-5.334z" fill="url(#c)" stroke="url(#d)" stroke-width="2"/><path d="M18.667 30.333V19.667a13.333 13.333 0 1 1 26.666 0v10.666" stroke="url(#e)" stroke-width="4"/></g></svg>