<svg fill="none" height="68" width="64" xmlns="http://www.w3.org/2000/svg" xmlns:xlink="http://www.w3.org/1999/xlink"><filter id="c" color-interpolation-filters="sRGB" filterUnits="userSpaceOnUse" height="72" width="72" x="-4" y="-2"><feFlood flood-opacity="0" result="BackgroundImageFix"/><feColorMatrix in="SourceAlpha" values="0 0 0 0 0 0 0 0 0 0 0 0 0 0 0 0 0 0 127 0"/><feOffset/><feGaussianBlur stdDeviation="2"/><feColorMatrix values="0 0 0 0 0.137255 0 0 0 0 0.14902 0 0 0 0 0.207843 0 0 0 0.4 0"/><feBlend in2="BackgroundImageFix" result="effect1_dropShadow"/><feBlend in="SourceGraphic" in2="effect1_dropShadow" result="shape"/></filter><linearGradient id="a"><stop offset="0" stop-color="#171a24"/><stop offset="1" stop-color="#545c7e"/></linearGradient><linearGradient id="d" gradientUnits="userSpaceOnUse" x1="32" x2="32" xlink:href="#a" y1="7.339" y2="60.661"/><linearGradient id="b"><stop offset="0" stop-color="#545c7e"/><stop offset="1" stop-color="#171a24"/></linearGradient><linearGradient id="e" gradientUnits="userSpaceOnUse" x1="32" x2="32" xlink:href="#b" y1="7.339" y2="60.661"/><linearGradient id="f" gradientUnits="userSpaceOnUse" x1="32" x2="32" xlink:href="#a" y1="20.56" y2="34.027"/><linearGradient id="g" gradientUnits="userSpaceOnUse" x1="32" x2="32" xlink:href="#b" y1="20.56" y2="34.027"/><linearGradient id="h" gradientUnits="userSpaceOnUse" x1="32.5" x2="32.5" xlink:href="#a" y1="34" y2="60.88"/><g filter="url(#c)"><path d="M56 44.667V23.333a5.333 5.333 0 0 0-2.667-4.613L34.667 8.053a5.334 5.334 0 0 0-5.334 0L10.667 18.72A5.333 5.333 0 0 0 8 23.333v21.334a5.333 5.333 0 0 0 2.667 4.613l18.666 10.667a5.334 5.334 0 0 0 5.334 0L53.333 49.28A5.334 5.334 0 0 0 56 44.667z" fill="url(#d)" stroke="url(#e)" stroke-linecap="round" stroke-linejoin="round" stroke-width="5.333"/><path d="M8.72 20.56L32 34.027 55.28 20.56" fill="url(#f)"/><g stroke-linecap="round" stroke-linejoin="round" stroke-width="5.333"><path d="M8.72 20.56L32 34.027 55.28 20.56" stroke="url(#g)"/><path d="M32 60.88V34" stroke="url(#h)"/></g></g></svg>