<svg width="44" height="44" fill="none" xmlns="http://www.w3.org/2000/svg"><g clip-path="url(#clip0)"><path d="M22 44c12.151 0 22-9.85 22-22S34.152 0 22 0C9.85 0 .002 9.85.002 22s9.85 22 22 22z" fill="#55ACEE"/><path d="M35.476 15.81c-.943.419-1.957.702-3.02.828a5.273 5.273 0 0 0 2.312-2.909 10.524 10.524 0 0 1-3.34 1.276 5.254 5.254 0 0 0-3.839-1.66 5.26 5.26 0 0 0-5.121 6.457 14.927 14.927 0 0 1-10.84-5.495 5.236 5.236 0 0 0-.712 2.644 5.26 5.26 0 0 0 2.34 4.377 5.223 5.223 0 0 1-2.382-.659v.067a5.262 5.262 0 0 0 4.218 5.156 5.24 5.24 0 0 1-2.374.09 5.264 5.264 0 0 0 4.912 3.652 10.55 10.55 0 0 1-6.532 2.252c-.423 0-.843-.025-1.253-.074a14.875 14.875 0 0 0 8.06 2.363c9.672 0 14.962-8.013 14.962-14.963 0-.227-.005-.455-.015-.68a10.663 10.663 0 0 0 2.624-2.721z" fill="#F1F2F2"/></g><defs><clipPath id="clip0"><path fill="#fff" d="M0 0h44v44H0z"/></clipPath></defs></svg>